<?xml version="1.0" encoding="UTF-8"?>
<svg id="icon-delete" viewBox="0 0 1024 1024"><path d="M741.443 231.589v-99.59c0-36.517-22.408-66.394-49.795-66.394H331.216c-27.388 0-49.796 29.878-49.796 66.393h0.09v99.59H79.878v66.394h68.765v599.913c0 34.896 28.295 63.504 63.075 64.015v0.007H810.06v-66.393H212.665V297.982h597.542v663.936c35.212 0 64.022-28.81 64.022-64.022V297.983h68.765V231.59H741.443z m-64.024 0H345.452v-99.59h331.967v99.59zM478.24 397.573h66.393v398.362H478.24V397.573z m-165.984 0h66.393v398.362h-66.393V397.573z m331.968 0h66.394v398.362h-66.394V397.573z"></path></svg>
