<?xml version="1.0" encoding="UTF-8"?>
<svg class="cesium-svgPath-svg" width="128" height="128" viewBox="0 0 128 128"><path d="M 83.96875 17.5625 L 83.96875 17.59375 L 76.65625 24.875 L 97.09375 24.96875 L 76.09375 45.96875 L 81.9375 51.8125 L 102.78125 30.9375 L 102.875 51.15625 L 110.15625 43.875 L 110.1875 17.59375 L 83.96875 17.5625 z M 44.125 17.59375 L 17.90625 17.625 L 17.9375 43.90625 L 25.21875 51.1875 L 25.3125 30.96875 L 46.15625 51.8125 L 52 45.96875 L 31 25 L 51.4375 24.90625 L 44.125 17.59375 z M 46.0625 76.03125 L 25.1875 96.875 L 25.09375 76.65625 L 17.8125 83.9375 L 17.8125 110.21875 L 44 110.25 L 51.3125 102.9375 L 30.90625 102.84375 L 51.875 81.875 L 46.0625 76.03125 z M 82 76.15625 L 76.15625 82 L 97.15625 103 L 76.71875 103.0625 L 84.03125 110.375 L 110.25 110.34375 L 110.21875 84.0625 L 102.9375 76.8125 L 102.84375 97 L 82 76.15625 z"></path></svg>