<?xml version="1.0" encoding="UTF-8"?>
<svg id="icon-point" viewBox="0 0 1024 1024"><path d="M506.397 91.074c40.775 0 79.083 7.737 114.942 23.186 35.842 15.46 66.918 36.348 93.23 62.65 26.963 26.978 48.174 58.208 63.637 93.727 15.445 35.519 23.186 73.672 23.186 114.446 0 55.246-15.463 114.937-46.371 179.067-30.923 64.128-64.794 123.493-101.624 178.078-36.843 54.605-85.835 118.07-147.002 190.416-61.17-72.346-110.173-135.81-147.006-190.416-36.843-54.585-70.71-113.95-101.617-178.078C226.849 500.02 211.4 440.33 211.4 385.083c0-40.774 7.723-78.927 23.186-114.446 15.444-35.52 36.655-66.75 63.631-93.727 26.304-26.303 57.38-47.192 93.235-62.65 35.849-15.449 74.152-23.186 114.945-23.186z m0 399.572c14.463 0 28.12-2.789 40.948-8.386 12.824-5.585 23.83-12.979 33.048-22.199 9.865-9.866 17.593-21.212 23.186-34.04 5.583-12.823 8.387-26.467 8.387-40.943 0-14.457-2.804-28.12-8.387-40.942-5.593-12.83-13.32-23.833-23.186-33.052-9.216-9.866-20.223-17.42-33.048-22.69-12.828-5.26-26.485-7.897-40.948-7.897-14.47 0-28.114 2.636-40.942 7.896-12.824 5.271-23.846 12.824-33.052 22.691-9.866 9.22-17.602 20.228-23.18 33.052-5.598 12.828-8.388 26.485-8.388 40.942 0 14.476 2.79 28.12 8.387 40.943 5.58 12.828 13.315 24.174 23.181 34.04 9.206 9.22 20.228 16.62 33.052 22.199 12.823 5.597 26.472 8.386 40.942 8.386z m0 0"></path></svg>