<svg t="1726411727407" viewBox="0 0 1077 1024" version="1.1"
    xmlns="http://www.w3.org/2000/svg" p-id="6739" width="32" height="32">
    <path
        d="M543.474526 42.307368a119.376842 119.376842 0 0 1 110.807579 163.84l190.57179 138.617264a119.376842 119.376842 0 1 1 83.375158 218.704842l-74.320842 228.837052a119.322947 119.322947 0 0 1-61.278316 221.884632c-46.780632 0-87.309474-26.947368-106.873263-66.128842h-289.414737a119.376842 119.376842 0 1 1-179.738948-147.833263l-72.272842-222.693053-3.395368 0.107789A119.376842 119.376842 0 0 1 21.827368 466.728421L21.557895 458.213053a119.376842 119.376842 0 0 1 183.834947-100.513685l223.501474-162.384842a119.430737 119.430737 0 0 1 114.58021-153.061052zM289.414737 840.057263a54.703158 54.703158 0 1 0 0 109.406316 54.703158 54.703158 0 0 0 0-109.406316z m503.161263 0a54.703158 54.703158 0 1 0 0 109.406316 54.703158 54.703158 0 0 0 0-109.406316zM462.686316 249.586526L248.131368 405.557895a119.322947 119.322947 0 0 1-42.846315 153.222737l70.709894 217.357473a119.430737 119.430737 0 0 1 132.419369 108.220632H673.684211a119.430737 119.430737 0 0 1 119.161263-108.975158l71.141052-218.974316a119.430737 119.430737 0 0 1-62.086737-164.217263l-186.368-135.275789c-19.994947 15.090526-45.002105 24.144842-72.057263 24.144842a118.945684 118.945684 0 0 1-80.78821-31.474527z m-321.751579 153.923369a54.703158 54.703158 0 1 0 0 109.406316 54.703158 54.703158 0 0 0 0-109.406316z m767.730526-12.557474a54.703158 54.703158 0 1 0 0 109.406316 54.703158 54.703158 0 0 0 0-109.406316z m-365.190737-284.025263a54.703158 54.703158 0 1 0 0 109.46021 54.703158 54.703158 0 0 0 0-109.406315z"
    ></path>
</svg>