<svg xmlns="http://www.w3.org/2000/svg" viewBox="0 0 24 24">
    <path
        d="M18.977 2a3.25 3.25 0 0 1 1 6.344v7.316a3.252 3.252 0 0 1-1 6.344 3.252 3.252 0 0 1-3.013-2.027H8.036a3.252 3.252 0 1 1-4.014-4.317V8.342A3.252 3.252 0 0 1 5.023 2c1.36 0 2.525.835 3.01 2.02h7.934a3.252 3.252 0 0 1 3.01-2.02zM5.023 17.5a1.25 1.25 0 1 0 0 2.501 1.25 1.25 0 0 0 0-2.5zm13.954 0a1.25 1.25 0 1 0 0 2.501 1.25 1.25 0 0 0 0-2.5zm-1.001-9.16a3.257 3.257 0 0 1-2.158-2.32H8.182a3.257 3.257 0 0 1-2.158 2.32v7.317a3.257 3.257 0 0 1 2.156 2.314h7.64a3.257 3.257 0 0 1 2.156-2.314zM5.023 4a1.25 1.25 0 1 0 0 2.5 1.25 1.25 0 0 0 0-2.5zm13.954 0a1.25 1.25 0 1 0 0 2.5 1.25 1.25 0 0 0 0-2.5z"
        fill-rule="evenodd" />
</svg>